<mxfile host="65bd71144e">
    <diagram id="d5zieJ3JJ9obK7V6wE48" name="trangchu">
        <mxGraphModel dx="1204" dy="431" grid="1" gridSize="10" guides="1" tooltips="1" connect="1" arrows="1" fold="1" page="1" pageScale="1" pageWidth="850" pageHeight="1100" math="0" shadow="0">
            <root>
                <mxCell id="Ms0gR6mt4mXbM62__B9m-0"/>
                <mxCell id="Ms0gR6mt4mXbM62__B9m-1" parent="Ms0gR6mt4mXbM62__B9m-0"/>
                <mxCell id="r_UoT3yMfrzmcSzYaCy4-0" value="" style="strokeWidth=1;shadow=0;dashed=0;align=center;html=1;shape=mxgraph.mockup.containers.browserWindow;rSize=0;strokeColor=#666666;strokeColor2=#008cff;strokeColor3=#c4c4c4;mainText=,;recursiveResize=0;" parent="Ms0gR6mt4mXbM62__B9m-1" vertex="1">
                    <mxGeometry y="40" width="850" height="750" as="geometry"/>
                </mxCell>
                <mxCell id="r_UoT3yMfrzmcSzYaCy4-1" value="React App" style="strokeWidth=1;shadow=0;dashed=0;align=center;html=1;shape=mxgraph.mockup.containers.anchor;fontSize=17;fontColor=#666666;align=left;" parent="r_UoT3yMfrzmcSzYaCy4-0" vertex="1">
                    <mxGeometry x="60" y="12" width="110" height="26" as="geometry"/>
                </mxCell>
                <mxCell id="r_UoT3yMfrzmcSzYaCy4-2" value="http://localhost:3000/trangchu" style="strokeWidth=1;shadow=0;dashed=0;align=center;html=1;shape=mxgraph.mockup.containers.anchor;rSize=0;fontSize=17;fontColor=#666666;align=left;" parent="r_UoT3yMfrzmcSzYaCy4-0" vertex="1">
                    <mxGeometry x="130" y="60" width="250" height="26" as="geometry"/>
                </mxCell>
                <mxCell id="r_UoT3yMfrzmcSzYaCy4-3" value="LOGO" style="rounded=1;whiteSpace=wrap;html=1;" parent="r_UoT3yMfrzmcSzYaCy4-0" vertex="1">
                    <mxGeometry x="20" y="120" width="130" height="50" as="geometry"/>
                </mxCell>
                <mxCell id="r_UoT3yMfrzmcSzYaCy4-4" value="Nhân Viên" style="rounded=1;whiteSpace=wrap;html=1;" parent="r_UoT3yMfrzmcSzYaCy4-0" vertex="1">
                    <mxGeometry x="350" y="120" width="120" height="50" as="geometry"/>
                </mxCell>
                <mxCell id="r_UoT3yMfrzmcSzYaCy4-5" value="Trang Chủ" style="rounded=1;whiteSpace=wrap;html=1;fillColor=#f5f5f5;fontColor=#333333;strokeColor=#666666;" parent="r_UoT3yMfrzmcSzYaCy4-0" vertex="1">
                    <mxGeometry x="230" y="120" width="120" height="50" as="geometry"/>
                </mxCell>
                <mxCell id="r_UoT3yMfrzmcSzYaCy4-6" value="Phòng Ban" style="rounded=1;whiteSpace=wrap;html=1;" parent="r_UoT3yMfrzmcSzYaCy4-0" vertex="1">
                    <mxGeometry x="470" y="120" width="120" height="50" as="geometry"/>
                </mxCell>
                <mxCell id="r_UoT3yMfrzmcSzYaCy4-7" value="Bảng Lương" style="rounded=1;whiteSpace=wrap;html=1;" parent="r_UoT3yMfrzmcSzYaCy4-0" vertex="1">
                    <mxGeometry x="590" y="120" width="120" height="50" as="geometry"/>
                </mxCell>
                <mxCell id="r_UoT3yMfrzmcSzYaCy4-21" value="" style="line;strokeWidth=2;html=1;" parent="r_UoT3yMfrzmcSzYaCy4-0" vertex="1">
                    <mxGeometry x="40" y="550" width="770" height="10" as="geometry"/>
                </mxCell>
                <mxCell id="r_UoT3yMfrzmcSzYaCy4-23" value="&lt;font style=&quot;font-size: 15px&quot;&gt;Liên kết&lt;/font&gt;" style="text;spacingTop=-5;whiteSpace=wrap;html=1;align=left;fontSize=12;fontFamily=Helvetica;fillColor=none;strokeColor=none;" parent="r_UoT3yMfrzmcSzYaCy4-0" vertex="1">
                    <mxGeometry x="50" y="580" width="160" height="20" as="geometry"/>
                </mxCell>
                <mxCell id="r_UoT3yMfrzmcSzYaCy4-24" value="&lt;font style=&quot;font-size: 15px&quot;&gt;Về chúng tôi&lt;/font&gt;" style="text;spacingTop=-5;whiteSpace=wrap;html=1;align=left;fontSize=12;fontFamily=Helvetica;fillColor=none;strokeColor=none;" parent="r_UoT3yMfrzmcSzYaCy4-0" vertex="1">
                    <mxGeometry x="230" y="580" width="160" height="20" as="geometry"/>
                </mxCell>
                <mxCell id="r_UoT3yMfrzmcSzYaCy4-25" value="&lt;span style=&quot;background-color: rgb(244 , 242 , 255)&quot;&gt;Trang chủ&lt;/span&gt;" style="shape=rectangle;strokeColor=none;fillColor=none;linkText=;fontSize=17;fontColor=#0000ff;fontStyle=4;html=1;align=center;" parent="r_UoT3yMfrzmcSzYaCy4-0" vertex="1">
                    <mxGeometry x="5" y="610" width="150" height="30" as="geometry"/>
                </mxCell>
                <mxCell id="r_UoT3yMfrzmcSzYaCy4-26" value="&lt;span style=&quot;background-color: rgb(244 , 242 , 255)&quot;&gt;Nhân viên&lt;/span&gt;" style="shape=rectangle;strokeColor=none;fillColor=none;linkText=;fontSize=17;fontColor=#0000ff;fontStyle=4;html=1;align=center;" parent="r_UoT3yMfrzmcSzYaCy4-0" vertex="1">
                    <mxGeometry x="5" y="640" width="150" height="30" as="geometry"/>
                </mxCell>
                <mxCell id="r_UoT3yMfrzmcSzYaCy4-27" value="&lt;span style=&quot;background-color: rgb(244 , 242 , 255)&quot;&gt;Phòng Ban&lt;/span&gt;" style="shape=rectangle;strokeColor=none;fillColor=none;linkText=;fontSize=17;fontColor=#0000ff;fontStyle=4;html=1;align=center;" parent="r_UoT3yMfrzmcSzYaCy4-0" vertex="1">
                    <mxGeometry x="5" y="670" width="150" height="30" as="geometry"/>
                </mxCell>
                <mxCell id="r_UoT3yMfrzmcSzYaCy4-28" value="&lt;span style=&quot;background-color: rgb(244 , 242 , 255)&quot;&gt;Bảng Lương&lt;/span&gt;" style="shape=rectangle;strokeColor=none;fillColor=none;linkText=;fontSize=17;fontColor=#0000ff;fontStyle=4;html=1;align=center;" parent="r_UoT3yMfrzmcSzYaCy4-0" vertex="1">
                    <mxGeometry x="5" y="700" width="150" height="30" as="geometry"/>
                </mxCell>
                <mxCell id="r_UoT3yMfrzmcSzYaCy4-29" value="" style="dashed=0;outlineConnect=0;html=1;align=center;labelPosition=center;verticalLabelPosition=bottom;verticalAlign=top;shape=mxgraph.webicons.google_plus;fillColor=#F24B46;gradientColor=#AD3832;labelBackgroundColor=#F4F2FF;fontSize=15;fontColor=#0000FF;" parent="r_UoT3yMfrzmcSzYaCy4-0" vertex="1">
                    <mxGeometry x="450" y="600" width="50" height="50" as="geometry"/>
                </mxCell>
                <mxCell id="r_UoT3yMfrzmcSzYaCy4-30" value="" style="dashed=0;outlineConnect=0;html=1;align=center;labelPosition=center;verticalLabelPosition=bottom;verticalAlign=top;shape=mxgraph.webicons.facebook;fillColor=#6294E4;gradientColor=#1A2665;labelBackgroundColor=#F4F2FF;fontSize=15;fontColor=#0000FF;" parent="r_UoT3yMfrzmcSzYaCy4-0" vertex="1">
                    <mxGeometry x="510" y="600" width="50" height="50" as="geometry"/>
                </mxCell>
                <mxCell id="r_UoT3yMfrzmcSzYaCy4-31" value="" style="dashed=0;outlineConnect=0;html=1;align=center;labelPosition=center;verticalLabelPosition=bottom;verticalAlign=top;shape=mxgraph.webicons.linkedin;fillColor=#0095DB;gradientColor=#006391;labelBackgroundColor=#F4F2FF;fontSize=15;fontColor=#0000FF;" parent="r_UoT3yMfrzmcSzYaCy4-0" vertex="1">
                    <mxGeometry x="570" y="600" width="46" height="50" as="geometry"/>
                </mxCell>
                <mxCell id="r_UoT3yMfrzmcSzYaCy4-32" value="" style="dashed=0;outlineConnect=0;html=1;align=center;labelPosition=center;verticalLabelPosition=bottom;verticalAlign=top;shape=mxgraph.webicons.twitter;fillColor=#49EAF7;gradientColor=#137BD0;labelBackgroundColor=#F4F2FF;fontSize=15;fontColor=#0000FF;" parent="r_UoT3yMfrzmcSzYaCy4-0" vertex="1">
                    <mxGeometry x="629.9999999999999" y="600" width="50.6" height="50" as="geometry"/>
                </mxCell>
                <mxCell id="r_UoT3yMfrzmcSzYaCy4-33" value="" style="dashed=0;outlineConnect=0;html=1;align=center;labelPosition=center;verticalLabelPosition=bottom;verticalAlign=top;shape=mxgraph.weblogos.youtube_2;fillColor=#FF2626;gradientColor=#B5171F;labelBackgroundColor=#F4F2FF;fontSize=15;fontColor=#0000FF;" parent="r_UoT3yMfrzmcSzYaCy4-0" vertex="1">
                    <mxGeometry x="695" y="600" width="50" height="50" as="geometry"/>
                </mxCell>
                <mxCell id="r_UoT3yMfrzmcSzYaCy4-34" value="" style="dashed=0;outlineConnect=0;html=1;align=center;labelPosition=center;verticalLabelPosition=bottom;verticalAlign=top;shape=mxgraph.weblogos.gmail;labelBackgroundColor=#F4F2FF;fontSize=15;fontColor=#0000FF;" parent="r_UoT3yMfrzmcSzYaCy4-0" vertex="1">
                    <mxGeometry x="760" y="600" width="50" height="50" as="geometry"/>
                </mxCell>
                <mxCell id="r_UoT3yMfrzmcSzYaCy4-35" value="&lt;font style=&quot;font-size: 14px&quot;&gt;Địa chỉ:&lt;/font&gt;" style="text;spacingTop=-5;whiteSpace=wrap;html=1;align=left;fontSize=12;fontFamily=Helvetica;fillColor=none;strokeColor=none;" parent="r_UoT3yMfrzmcSzYaCy4-0" vertex="1">
                    <mxGeometry x="230" y="615" width="160" height="20" as="geometry"/>
                </mxCell>
                <mxCell id="r_UoT3yMfrzmcSzYaCy4-36" value="&lt;font style=&quot;font-size: 14px&quot;&gt;Liên hệ:&amp;nbsp;&lt;/font&gt;" style="text;spacingTop=-5;whiteSpace=wrap;html=1;align=left;fontSize=12;fontFamily=Helvetica;fillColor=none;strokeColor=none;" parent="r_UoT3yMfrzmcSzYaCy4-0" vertex="1">
                    <mxGeometry x="230" y="645" width="160" height="20" as="geometry"/>
                </mxCell>
                <mxCell id="r_UoT3yMfrzmcSzYaCy4-37" value="&lt;font style=&quot;font-size: 18px&quot;&gt;Ứng dụng quản lý nhân viên v2.0&lt;/font&gt;" style="text;spacingTop=-5;whiteSpace=wrap;html=1;align=left;fontSize=12;fontFamily=Helvetica;fillColor=none;strokeColor=none;" parent="r_UoT3yMfrzmcSzYaCy4-0" vertex="1">
                    <mxGeometry x="80" y="240" width="310" height="30" as="geometry"/>
                </mxCell>
                <mxCell id="r_UoT3yMfrzmcSzYaCy4-38" value="&lt;font style=&quot;font-size: 15px&quot;&gt;Môn học:&amp;nbsp;&amp;nbsp;&lt;/font&gt;" style="text;spacingTop=-5;whiteSpace=wrap;html=1;align=left;fontSize=12;fontFamily=Helvetica;fillColor=none;strokeColor=none;" parent="r_UoT3yMfrzmcSzYaCy4-0" vertex="1">
                    <mxGeometry x="80" y="290" width="310" height="30" as="geometry"/>
                </mxCell>
                <mxCell id="r_UoT3yMfrzmcSzYaCy4-39" value="&lt;span style=&quot;font-size: 15px&quot;&gt;Bài tập số:&amp;nbsp;&lt;/span&gt;" style="text;spacingTop=-5;whiteSpace=wrap;html=1;align=left;fontSize=12;fontFamily=Helvetica;fillColor=none;strokeColor=none;" parent="r_UoT3yMfrzmcSzYaCy4-0" vertex="1">
                    <mxGeometry x="80" y="330" width="310" height="30" as="geometry"/>
                </mxCell>
                <mxCell id="r_UoT3yMfrzmcSzYaCy4-40" value="&lt;font style=&quot;font-size: 15px&quot;&gt;Tên dự án:&lt;/font&gt;" style="text;spacingTop=-5;whiteSpace=wrap;html=1;align=left;fontSize=12;fontFamily=Helvetica;fillColor=none;strokeColor=none;" parent="r_UoT3yMfrzmcSzYaCy4-0" vertex="1">
                    <mxGeometry x="80" y="370" width="310" height="30" as="geometry"/>
                </mxCell>
                <mxCell id="r_UoT3yMfrzmcSzYaCy4-41" value="&lt;font style=&quot;font-size: 15px&quot;&gt;Tác giả:&lt;/font&gt;" style="text;spacingTop=-5;whiteSpace=wrap;html=1;align=left;fontSize=12;fontFamily=Helvetica;fillColor=none;strokeColor=none;" parent="r_UoT3yMfrzmcSzYaCy4-0" vertex="1">
                    <mxGeometry x="80" y="410" width="310" height="30" as="geometry"/>
                </mxCell>
                <mxCell id="r_UoT3yMfrzmcSzYaCy4-43" value="&lt;font style=&quot;font-size: 15px&quot;&gt;Người thực hiện:&lt;/font&gt;" style="text;spacingTop=-5;whiteSpace=wrap;html=1;align=left;fontSize=12;fontFamily=Helvetica;fillColor=none;strokeColor=none;" parent="r_UoT3yMfrzmcSzYaCy4-0" vertex="1">
                    <mxGeometry x="80" y="450" width="310" height="30" as="geometry"/>
                </mxCell>
            </root>
        </mxGraphModel>
    </diagram>
    <diagram id="uOpMOtsDTDhDNFPdI-n_" name="nhanvien">
        <mxGraphModel dx="1204" dy="431" grid="1" gridSize="10" guides="1" tooltips="1" connect="1" arrows="1" fold="1" page="1" pageScale="1" pageWidth="850" pageHeight="1100" math="0" shadow="0">
            <root>
                <mxCell id="0"/>
                <mxCell id="1" parent="0"/>
                <mxCell id="3" value="" style="strokeWidth=1;shadow=0;dashed=0;align=center;html=1;shape=mxgraph.mockup.containers.browserWindow;rSize=0;strokeColor=#666666;strokeColor2=#008cff;strokeColor3=#c4c4c4;mainText=,;recursiveResize=0;" parent="1" vertex="1">
                    <mxGeometry y="50" width="850" height="750" as="geometry"/>
                </mxCell>
                <mxCell id="4" value="React App" style="strokeWidth=1;shadow=0;dashed=0;align=center;html=1;shape=mxgraph.mockup.containers.anchor;fontSize=17;fontColor=#666666;align=left;" parent="3" vertex="1">
                    <mxGeometry x="60" y="12" width="110" height="26" as="geometry"/>
                </mxCell>
                <mxCell id="5" value="http://localhost:3000/nhanvien" style="strokeWidth=1;shadow=0;dashed=0;align=center;html=1;shape=mxgraph.mockup.containers.anchor;rSize=0;fontSize=17;fontColor=#666666;align=left;" parent="3" vertex="1">
                    <mxGeometry x="130" y="60" width="250" height="26" as="geometry"/>
                </mxCell>
                <mxCell id="6" value="LOGO" style="rounded=1;whiteSpace=wrap;html=1;" parent="3" vertex="1">
                    <mxGeometry x="20" y="120" width="130" height="50" as="geometry"/>
                </mxCell>
                <mxCell id="7" value="Trang Chủ" style="rounded=1;whiteSpace=wrap;html=1;" parent="3" vertex="1">
                    <mxGeometry x="230" y="120" width="120" height="50" as="geometry"/>
                </mxCell>
                <mxCell id="9" value="Nhân Viên" style="rounded=1;whiteSpace=wrap;html=1;fillColor=#f5f5f5;fontColor=#333333;strokeColor=#666666;" parent="3" vertex="1">
                    <mxGeometry x="350" y="120" width="120" height="50" as="geometry"/>
                </mxCell>
                <mxCell id="8" value="Phòng Ban" style="rounded=1;whiteSpace=wrap;html=1;" parent="3" vertex="1">
                    <mxGeometry x="470" y="120" width="120" height="50" as="geometry"/>
                </mxCell>
                <mxCell id="10" value="Bảng Lương" style="rounded=1;whiteSpace=wrap;html=1;" parent="3" vertex="1">
                    <mxGeometry x="590" y="120" width="120" height="50" as="geometry"/>
                </mxCell>
                <mxCell id="18" value="Tên nhân viên" style="verticalLabelPosition=bottom;shadow=0;dashed=0;align=center;html=1;verticalAlign=top;strokeWidth=1;shape=mxgraph.mockup.containers.userMale;strokeColor=#666666;strokeColor2=#008cff;" parent="3" vertex="1">
                    <mxGeometry x="150" y="250" width="100" height="100" as="geometry"/>
                </mxCell>
                <mxCell id="24" value="Tên nhân viên" style="verticalLabelPosition=bottom;shadow=0;dashed=0;align=center;html=1;verticalAlign=top;strokeWidth=1;shape=mxgraph.mockup.containers.userMale;strokeColor=#666666;strokeColor2=#008cff;" parent="3" vertex="1">
                    <mxGeometry x="420" y="250" width="100" height="100" as="geometry"/>
                </mxCell>
                <mxCell id="23" value="Tên nhân viên" style="verticalLabelPosition=bottom;shadow=0;dashed=0;align=center;html=1;verticalAlign=top;strokeWidth=1;shape=mxgraph.mockup.containers.userMale;strokeColor=#666666;strokeColor2=#008cff;" parent="3" vertex="1">
                    <mxGeometry x="290" y="250" width="100" height="100" as="geometry"/>
                </mxCell>
                <mxCell id="22" value="Tên nhân viên" style="verticalLabelPosition=bottom;shadow=0;dashed=0;align=center;html=1;verticalAlign=top;strokeWidth=1;shape=mxgraph.mockup.containers.userMale;strokeColor=#666666;strokeColor2=#008cff;" parent="3" vertex="1">
                    <mxGeometry x="560" y="250" width="100" height="100" as="geometry"/>
                </mxCell>
                <mxCell id="21" value="Tên nhân viên" style="verticalLabelPosition=bottom;shadow=0;dashed=0;align=center;html=1;verticalAlign=top;strokeWidth=1;shape=mxgraph.mockup.containers.userMale;strokeColor=#666666;strokeColor2=#008cff;" parent="3" vertex="1">
                    <mxGeometry x="690" y="250" width="100" height="100" as="geometry"/>
                </mxCell>
                <mxCell id="20" value="Tên nhân viên" style="verticalLabelPosition=bottom;shadow=0;dashed=0;align=center;html=1;verticalAlign=top;strokeWidth=1;shape=mxgraph.mockup.containers.userMale;strokeColor=#666666;strokeColor2=#008cff;" parent="3" vertex="1">
                    <mxGeometry x="560" y="380" width="100" height="100" as="geometry"/>
                </mxCell>
                <mxCell id="19" value="Tên nhân viên" style="verticalLabelPosition=bottom;shadow=0;dashed=0;align=center;html=1;verticalAlign=top;strokeWidth=1;shape=mxgraph.mockup.containers.userMale;strokeColor=#666666;strokeColor2=#008cff;" parent="3" vertex="1">
                    <mxGeometry x="20" y="250" width="100" height="100" as="geometry"/>
                </mxCell>
                <mxCell id="28" value="Tên nhân viên" style="verticalLabelPosition=bottom;shadow=0;dashed=0;align=center;html=1;verticalAlign=top;strokeWidth=1;shape=mxgraph.mockup.containers.userMale;strokeColor=#666666;strokeColor2=#008cff;" parent="3" vertex="1">
                    <mxGeometry x="20" y="380" width="100" height="100" as="geometry"/>
                </mxCell>
                <mxCell id="27" value="Tên nhân viên" style="verticalLabelPosition=bottom;shadow=0;dashed=0;align=center;html=1;verticalAlign=top;strokeWidth=1;shape=mxgraph.mockup.containers.userMale;strokeColor=#666666;strokeColor2=#008cff;" parent="3" vertex="1">
                    <mxGeometry x="150" y="380" width="100" height="100" as="geometry"/>
                </mxCell>
                <mxCell id="26" value="Tên nhân viên" style="verticalLabelPosition=bottom;shadow=0;dashed=0;align=center;html=1;verticalAlign=top;strokeWidth=1;shape=mxgraph.mockup.containers.userMale;strokeColor=#666666;strokeColor2=#008cff;" parent="3" vertex="1">
                    <mxGeometry x="290" y="380" width="100" height="100" as="geometry"/>
                </mxCell>
                <mxCell id="25" value="Tên nhân viên" style="verticalLabelPosition=bottom;shadow=0;dashed=0;align=center;html=1;verticalAlign=top;strokeWidth=1;shape=mxgraph.mockup.containers.userMale;strokeColor=#666666;strokeColor2=#008cff;" parent="3" vertex="1">
                    <mxGeometry x="420" y="380" width="100" height="100" as="geometry"/>
                </mxCell>
                <mxCell id="29" value="Tên nhân viên" style="verticalLabelPosition=bottom;shadow=0;dashed=0;align=center;html=1;verticalAlign=top;strokeWidth=1;shape=mxgraph.mockup.containers.userMale;strokeColor=#666666;strokeColor2=#008cff;" parent="3" vertex="1">
                    <mxGeometry x="690" y="380" width="100" height="100" as="geometry"/>
                </mxCell>
                <mxCell id="32" value="Tìm nhân viên" style="strokeWidth=1;shadow=0;dashed=0;align=center;html=1;shape=mxgraph.mockup.forms.searchBox;strokeColor=#999999;mainText=;strokeColor2=#008cff;fontColor=#666666;fontSize=17;align=left;spacingLeft=3;" parent="3" vertex="1">
                    <mxGeometry x="660" y="190" width="130" height="30" as="geometry"/>
                </mxCell>
                <mxCell id="33" value="" style="line;strokeWidth=2;html=1;" parent="3" vertex="1">
                    <mxGeometry x="40" y="550" width="770" height="10" as="geometry"/>
                </mxCell>
                <mxCell id="34" value="&lt;font style=&quot;font-size: 15px&quot;&gt;Danh Sách Nhân viên&lt;/font&gt;" style="text;spacingTop=-5;whiteSpace=wrap;html=1;align=left;fontSize=12;fontFamily=Helvetica;fillColor=none;strokeColor=none;" parent="3" vertex="1">
                    <mxGeometry x="20" y="190" width="160" height="50" as="geometry"/>
                </mxCell>
                <mxCell id="35" value="&lt;font style=&quot;font-size: 15px&quot;&gt;Liên kết&lt;/font&gt;" style="text;spacingTop=-5;whiteSpace=wrap;html=1;align=left;fontSize=12;fontFamily=Helvetica;fillColor=none;strokeColor=none;" parent="3" vertex="1">
                    <mxGeometry x="50" y="580" width="160" height="20" as="geometry"/>
                </mxCell>
                <mxCell id="36" value="&lt;font style=&quot;font-size: 15px&quot;&gt;Về chúng tôi&lt;/font&gt;" style="text;spacingTop=-5;whiteSpace=wrap;html=1;align=left;fontSize=12;fontFamily=Helvetica;fillColor=none;strokeColor=none;" parent="3" vertex="1">
                    <mxGeometry x="230" y="580" width="160" height="20" as="geometry"/>
                </mxCell>
                <mxCell id="37" value="&lt;span style=&quot;background-color: rgb(244 , 242 , 255)&quot;&gt;Trang chủ&lt;/span&gt;" style="shape=rectangle;strokeColor=none;fillColor=none;linkText=;fontSize=17;fontColor=#0000ff;fontStyle=4;html=1;align=center;" parent="3" vertex="1">
                    <mxGeometry x="5" y="610" width="150" height="30" as="geometry"/>
                </mxCell>
                <mxCell id="43" value="&lt;span style=&quot;background-color: rgb(244 , 242 , 255)&quot;&gt;Nhân viên&lt;/span&gt;" style="shape=rectangle;strokeColor=none;fillColor=none;linkText=;fontSize=17;fontColor=#0000ff;fontStyle=4;html=1;align=center;" parent="3" vertex="1">
                    <mxGeometry x="5" y="640" width="150" height="30" as="geometry"/>
                </mxCell>
                <mxCell id="44" value="&lt;span style=&quot;background-color: rgb(244 , 242 , 255)&quot;&gt;Phòng Ban&lt;/span&gt;" style="shape=rectangle;strokeColor=none;fillColor=none;linkText=;fontSize=17;fontColor=#0000ff;fontStyle=4;html=1;align=center;" parent="3" vertex="1">
                    <mxGeometry x="5" y="670" width="150" height="30" as="geometry"/>
                </mxCell>
                <mxCell id="45" value="&lt;span style=&quot;background-color: rgb(244 , 242 , 255)&quot;&gt;Bảng Lương&lt;/span&gt;" style="shape=rectangle;strokeColor=none;fillColor=none;linkText=;fontSize=17;fontColor=#0000ff;fontStyle=4;html=1;align=center;" parent="3" vertex="1">
                    <mxGeometry x="5" y="700" width="150" height="30" as="geometry"/>
                </mxCell>
                <mxCell id="47" value="" style="dashed=0;outlineConnect=0;html=1;align=center;labelPosition=center;verticalLabelPosition=bottom;verticalAlign=top;shape=mxgraph.webicons.google_plus;fillColor=#F24B46;gradientColor=#AD3832;labelBackgroundColor=#F4F2FF;fontSize=15;fontColor=#0000FF;" parent="3" vertex="1">
                    <mxGeometry x="470" y="600" width="50" height="50" as="geometry"/>
                </mxCell>
                <mxCell id="48" value="" style="dashed=0;outlineConnect=0;html=1;align=center;labelPosition=center;verticalLabelPosition=bottom;verticalAlign=top;shape=mxgraph.webicons.facebook;fillColor=#6294E4;gradientColor=#1A2665;labelBackgroundColor=#F4F2FF;fontSize=15;fontColor=#0000FF;" parent="3" vertex="1">
                    <mxGeometry x="530" y="600" width="50" height="50" as="geometry"/>
                </mxCell>
                <mxCell id="49" value="" style="dashed=0;outlineConnect=0;html=1;align=center;labelPosition=center;verticalLabelPosition=bottom;verticalAlign=top;shape=mxgraph.webicons.linkedin;fillColor=#0095DB;gradientColor=#006391;labelBackgroundColor=#F4F2FF;fontSize=15;fontColor=#0000FF;" parent="3" vertex="1">
                    <mxGeometry x="590" y="600" width="46" height="50" as="geometry"/>
                </mxCell>
                <mxCell id="50" value="" style="dashed=0;outlineConnect=0;html=1;align=center;labelPosition=center;verticalLabelPosition=bottom;verticalAlign=top;shape=mxgraph.webicons.twitter;fillColor=#49EAF7;gradientColor=#137BD0;labelBackgroundColor=#F4F2FF;fontSize=15;fontColor=#0000FF;" parent="3" vertex="1">
                    <mxGeometry x="649.9999999999999" y="600" width="50.6" height="50" as="geometry"/>
                </mxCell>
                <mxCell id="51" value="" style="dashed=0;outlineConnect=0;html=1;align=center;labelPosition=center;verticalLabelPosition=bottom;verticalAlign=top;shape=mxgraph.weblogos.youtube_2;fillColor=#FF2626;gradientColor=#B5171F;labelBackgroundColor=#F4F2FF;fontSize=15;fontColor=#0000FF;" parent="3" vertex="1">
                    <mxGeometry x="715" y="600" width="50" height="50" as="geometry"/>
                </mxCell>
                <mxCell id="52" value="" style="dashed=0;outlineConnect=0;html=1;align=center;labelPosition=center;verticalLabelPosition=bottom;verticalAlign=top;shape=mxgraph.weblogos.gmail;labelBackgroundColor=#F4F2FF;fontSize=15;fontColor=#0000FF;" parent="3" vertex="1">
                    <mxGeometry x="780" y="600" width="50" height="50" as="geometry"/>
                </mxCell>
                <mxCell id="53" value="&lt;font style=&quot;font-size: 14px&quot;&gt;Địa chỉ:&lt;/font&gt;" style="text;spacingTop=-5;whiteSpace=wrap;html=1;align=left;fontSize=12;fontFamily=Helvetica;fillColor=none;strokeColor=none;" parent="3" vertex="1">
                    <mxGeometry x="230" y="615" width="160" height="20" as="geometry"/>
                </mxCell>
                <mxCell id="54" value="&lt;font style=&quot;font-size: 14px&quot;&gt;Liên hệ:&amp;nbsp;&lt;/font&gt;" style="text;spacingTop=-5;whiteSpace=wrap;html=1;align=left;fontSize=12;fontFamily=Helvetica;fillColor=none;strokeColor=none;" parent="3" vertex="1">
                    <mxGeometry x="230" y="645" width="160" height="20" as="geometry"/>
                </mxCell>
            </root>
        </mxGraphModel>
    </diagram>
    <diagram id="oLetVwXQwEe_nV5sM-S_" name="chitietnhanvien">
        <mxGraphModel dx="1204" dy="431" grid="1" gridSize="10" guides="1" tooltips="1" connect="1" arrows="1" fold="1" page="1" pageScale="1" pageWidth="850" pageHeight="1100" math="0" shadow="0">
            <root>
                <mxCell id="dkOQYcRJOfMOdsa485y--0"/>
                <mxCell id="dkOQYcRJOfMOdsa485y--1" parent="dkOQYcRJOfMOdsa485y--0"/>
                <mxCell id="dkOQYcRJOfMOdsa485y--2" value="" style="strokeWidth=1;shadow=0;dashed=0;align=center;html=1;shape=mxgraph.mockup.containers.browserWindow;rSize=0;strokeColor=#666666;strokeColor2=#008cff;strokeColor3=#c4c4c4;mainText=,;recursiveResize=0;" parent="dkOQYcRJOfMOdsa485y--1" vertex="1">
                    <mxGeometry y="40" width="850" height="750" as="geometry"/>
                </mxCell>
                <mxCell id="dkOQYcRJOfMOdsa485y--3" value="React App" style="strokeWidth=1;shadow=0;dashed=0;align=center;html=1;shape=mxgraph.mockup.containers.anchor;fontSize=17;fontColor=#666666;align=left;" parent="dkOQYcRJOfMOdsa485y--2" vertex="1">
                    <mxGeometry x="60" y="12" width="110" height="26" as="geometry"/>
                </mxCell>
                <mxCell id="dkOQYcRJOfMOdsa485y--4" value="http://localhost:3000/nhanvien/0" style="strokeWidth=1;shadow=0;dashed=0;align=center;html=1;shape=mxgraph.mockup.containers.anchor;rSize=0;fontSize=17;fontColor=#666666;align=left;" parent="dkOQYcRJOfMOdsa485y--2" vertex="1">
                    <mxGeometry x="130" y="60" width="250" height="26" as="geometry"/>
                </mxCell>
                <mxCell id="dkOQYcRJOfMOdsa485y--5" value="LOGO" style="rounded=1;whiteSpace=wrap;html=1;" parent="dkOQYcRJOfMOdsa485y--2" vertex="1">
                    <mxGeometry x="20" y="120" width="130" height="50" as="geometry"/>
                </mxCell>
                <mxCell id="dkOQYcRJOfMOdsa485y--6" value="Trang Chủ" style="rounded=1;whiteSpace=wrap;html=1;" parent="dkOQYcRJOfMOdsa485y--2" vertex="1">
                    <mxGeometry x="230" y="120" width="120" height="50" as="geometry"/>
                </mxCell>
                <mxCell id="dkOQYcRJOfMOdsa485y--7" value="Nhân Viên" style="rounded=1;whiteSpace=wrap;html=1;fillColor=#f5f5f5;fontColor=#333333;strokeColor=#666666;" parent="dkOQYcRJOfMOdsa485y--2" vertex="1">
                    <mxGeometry x="350" y="120" width="120" height="50" as="geometry"/>
                </mxCell>
                <mxCell id="dkOQYcRJOfMOdsa485y--8" value="Phòng Ban" style="rounded=1;whiteSpace=wrap;html=1;" parent="dkOQYcRJOfMOdsa485y--2" vertex="1">
                    <mxGeometry x="470" y="120" width="120" height="50" as="geometry"/>
                </mxCell>
                <mxCell id="dkOQYcRJOfMOdsa485y--9" value="Bảng Lương" style="rounded=1;whiteSpace=wrap;html=1;" parent="dkOQYcRJOfMOdsa485y--2" vertex="1">
                    <mxGeometry x="590" y="120" width="120" height="50" as="geometry"/>
                </mxCell>
                <mxCell id="dkOQYcRJOfMOdsa485y--10" value="" style="line;strokeWidth=2;html=1;" parent="dkOQYcRJOfMOdsa485y--2" vertex="1">
                    <mxGeometry x="40" y="550" width="770" height="10" as="geometry"/>
                </mxCell>
                <mxCell id="dkOQYcRJOfMOdsa485y--11" value="&lt;font style=&quot;font-size: 15px&quot;&gt;Liên kết&lt;/font&gt;" style="text;spacingTop=-5;whiteSpace=wrap;html=1;align=left;fontSize=12;fontFamily=Helvetica;fillColor=none;strokeColor=none;" parent="dkOQYcRJOfMOdsa485y--2" vertex="1">
                    <mxGeometry x="50" y="580" width="160" height="20" as="geometry"/>
                </mxCell>
                <mxCell id="dkOQYcRJOfMOdsa485y--12" value="&lt;font style=&quot;font-size: 15px&quot;&gt;Về chúng tôi&lt;/font&gt;" style="text;spacingTop=-5;whiteSpace=wrap;html=1;align=left;fontSize=12;fontFamily=Helvetica;fillColor=none;strokeColor=none;" parent="dkOQYcRJOfMOdsa485y--2" vertex="1">
                    <mxGeometry x="230" y="580" width="160" height="20" as="geometry"/>
                </mxCell>
                <mxCell id="dkOQYcRJOfMOdsa485y--13" value="&lt;span style=&quot;background-color: rgb(244 , 242 , 255)&quot;&gt;Trang chủ&lt;/span&gt;" style="shape=rectangle;strokeColor=none;fillColor=none;linkText=;fontSize=17;fontColor=#0000ff;fontStyle=4;html=1;align=center;" parent="dkOQYcRJOfMOdsa485y--2" vertex="1">
                    <mxGeometry x="5" y="610" width="150" height="30" as="geometry"/>
                </mxCell>
                <mxCell id="dkOQYcRJOfMOdsa485y--14" value="&lt;span style=&quot;background-color: rgb(244 , 242 , 255)&quot;&gt;Nhân viên&lt;/span&gt;" style="shape=rectangle;strokeColor=none;fillColor=none;linkText=;fontSize=17;fontColor=#0000ff;fontStyle=4;html=1;align=center;" parent="dkOQYcRJOfMOdsa485y--2" vertex="1">
                    <mxGeometry x="5" y="640" width="150" height="30" as="geometry"/>
                </mxCell>
                <mxCell id="dkOQYcRJOfMOdsa485y--15" value="&lt;span style=&quot;background-color: rgb(244 , 242 , 255)&quot;&gt;Phòng Ban&lt;/span&gt;" style="shape=rectangle;strokeColor=none;fillColor=none;linkText=;fontSize=17;fontColor=#0000ff;fontStyle=4;html=1;align=center;" parent="dkOQYcRJOfMOdsa485y--2" vertex="1">
                    <mxGeometry x="5" y="670" width="150" height="30" as="geometry"/>
                </mxCell>
                <mxCell id="dkOQYcRJOfMOdsa485y--16" value="&lt;span style=&quot;background-color: rgb(244 , 242 , 255)&quot;&gt;Bảng Lương&lt;/span&gt;" style="shape=rectangle;strokeColor=none;fillColor=none;linkText=;fontSize=17;fontColor=#0000ff;fontStyle=4;html=1;align=center;" parent="dkOQYcRJOfMOdsa485y--2" vertex="1">
                    <mxGeometry x="5" y="700" width="150" height="30" as="geometry"/>
                </mxCell>
                <mxCell id="dkOQYcRJOfMOdsa485y--17" value="" style="dashed=0;outlineConnect=0;html=1;align=center;labelPosition=center;verticalLabelPosition=bottom;verticalAlign=top;shape=mxgraph.webicons.google_plus;fillColor=#F24B46;gradientColor=#AD3832;labelBackgroundColor=#F4F2FF;fontSize=15;fontColor=#0000FF;" parent="dkOQYcRJOfMOdsa485y--2" vertex="1">
                    <mxGeometry x="470" y="600" width="50" height="50" as="geometry"/>
                </mxCell>
                <mxCell id="dkOQYcRJOfMOdsa485y--18" value="" style="dashed=0;outlineConnect=0;html=1;align=center;labelPosition=center;verticalLabelPosition=bottom;verticalAlign=top;shape=mxgraph.webicons.facebook;fillColor=#6294E4;gradientColor=#1A2665;labelBackgroundColor=#F4F2FF;fontSize=15;fontColor=#0000FF;" parent="dkOQYcRJOfMOdsa485y--2" vertex="1">
                    <mxGeometry x="530" y="600" width="50" height="50" as="geometry"/>
                </mxCell>
                <mxCell id="dkOQYcRJOfMOdsa485y--19" value="" style="dashed=0;outlineConnect=0;html=1;align=center;labelPosition=center;verticalLabelPosition=bottom;verticalAlign=top;shape=mxgraph.webicons.linkedin;fillColor=#0095DB;gradientColor=#006391;labelBackgroundColor=#F4F2FF;fontSize=15;fontColor=#0000FF;" parent="dkOQYcRJOfMOdsa485y--2" vertex="1">
                    <mxGeometry x="590" y="600" width="46" height="50" as="geometry"/>
                </mxCell>
                <mxCell id="dkOQYcRJOfMOdsa485y--20" value="" style="dashed=0;outlineConnect=0;html=1;align=center;labelPosition=center;verticalLabelPosition=bottom;verticalAlign=top;shape=mxgraph.webicons.twitter;fillColor=#49EAF7;gradientColor=#137BD0;labelBackgroundColor=#F4F2FF;fontSize=15;fontColor=#0000FF;" parent="dkOQYcRJOfMOdsa485y--2" vertex="1">
                    <mxGeometry x="649.9999999999999" y="600" width="50.6" height="50" as="geometry"/>
                </mxCell>
                <mxCell id="dkOQYcRJOfMOdsa485y--21" value="" style="dashed=0;outlineConnect=0;html=1;align=center;labelPosition=center;verticalLabelPosition=bottom;verticalAlign=top;shape=mxgraph.weblogos.youtube_2;fillColor=#FF2626;gradientColor=#B5171F;labelBackgroundColor=#F4F2FF;fontSize=15;fontColor=#0000FF;" parent="dkOQYcRJOfMOdsa485y--2" vertex="1">
                    <mxGeometry x="715" y="600" width="50" height="50" as="geometry"/>
                </mxCell>
                <mxCell id="dkOQYcRJOfMOdsa485y--22" value="" style="dashed=0;outlineConnect=0;html=1;align=center;labelPosition=center;verticalLabelPosition=bottom;verticalAlign=top;shape=mxgraph.weblogos.gmail;labelBackgroundColor=#F4F2FF;fontSize=15;fontColor=#0000FF;" parent="dkOQYcRJOfMOdsa485y--2" vertex="1">
                    <mxGeometry x="780" y="600" width="50" height="50" as="geometry"/>
                </mxCell>
                <mxCell id="dkOQYcRJOfMOdsa485y--23" value="&lt;font style=&quot;font-size: 14px&quot;&gt;Địa chỉ:&lt;/font&gt;" style="text;spacingTop=-5;whiteSpace=wrap;html=1;align=left;fontSize=12;fontFamily=Helvetica;fillColor=none;strokeColor=none;" parent="dkOQYcRJOfMOdsa485y--2" vertex="1">
                    <mxGeometry x="230" y="615" width="160" height="20" as="geometry"/>
                </mxCell>
                <mxCell id="dkOQYcRJOfMOdsa485y--24" value="&lt;font style=&quot;font-size: 14px&quot;&gt;Liên hệ:&amp;nbsp;&lt;/font&gt;" style="text;spacingTop=-5;whiteSpace=wrap;html=1;align=left;fontSize=12;fontFamily=Helvetica;fillColor=none;strokeColor=none;" parent="dkOQYcRJOfMOdsa485y--2" vertex="1">
                    <mxGeometry x="230" y="645" width="160" height="20" as="geometry"/>
                </mxCell>
                <mxCell id="uToBgMo2ooA_aoSOfbOL-0" value="" style="verticalLabelPosition=bottom;shadow=0;dashed=0;align=center;html=1;verticalAlign=top;strokeWidth=1;shape=mxgraph.mockup.containers.userMale;strokeColor=#666666;strokeColor2=#008cff;" parent="dkOQYcRJOfMOdsa485y--2" vertex="1">
                    <mxGeometry x="50" y="280" width="170" height="170" as="geometry"/>
                </mxCell>
                <mxCell id="uToBgMo2ooA_aoSOfbOL-8" value="Nhân Viên" style="strokeWidth=1;shadow=0;dashed=0;align=center;html=1;shape=mxgraph.mockup.navigation.anchor;fontSize=17;fontColor=#666666;fontStyle=1;fillColor=#121212;" parent="dkOQYcRJOfMOdsa485y--2" vertex="1">
                    <mxGeometry x="50" y="190" width="90" height="30" as="geometry"/>
                </mxCell>
                <mxCell id="uToBgMo2ooA_aoSOfbOL-9" value="/" style="strokeWidth=1;shadow=0;dashed=0;align=center;html=1;shape=mxgraph.mockup.navigation.anchor;fontSize=24;fontColor=#aaaaaa;fontStyle=1;fillColor=#121212;" parent="dkOQYcRJOfMOdsa485y--2" vertex="1">
                    <mxGeometry x="140" y="190" width="20" height="30" as="geometry"/>
                </mxCell>
                <mxCell id="uToBgMo2ooA_aoSOfbOL-10" value="Tên nhân viên" style="strokeWidth=1;shadow=0;dashed=0;align=center;html=1;shape=mxgraph.mockup.navigation.anchor;fontSize=17;fontColor=#666666;fontStyle=1;fillColor=#121212;" parent="dkOQYcRJOfMOdsa485y--2" vertex="1">
                    <mxGeometry x="170" y="190" width="110" height="30" as="geometry"/>
                </mxCell>
                <mxCell id="A34_4Cs7itOyvC4KYHDT-0" value="&lt;font size=&quot;1&quot;&gt;&lt;b style=&quot;font-size: 16px&quot;&gt;Tên Nhân Viên&lt;/b&gt;&lt;/font&gt;" style="text;spacingTop=-5;whiteSpace=wrap;html=1;align=left;fontSize=12;fontFamily=Helvetica;fillColor=none;strokeColor=none;" parent="dkOQYcRJOfMOdsa485y--2" vertex="1">
                    <mxGeometry x="50" y="230" width="160" height="50" as="geometry"/>
                </mxCell>
                <mxCell id="A34_4Cs7itOyvC4KYHDT-1" value="&lt;font size=&quot;1&quot;&gt;&lt;b style=&quot;font-size: 16px&quot;&gt;Họ và tên:&amp;nbsp;&lt;/b&gt;&lt;/font&gt;" style="text;spacingTop=-5;whiteSpace=wrap;html=1;align=left;fontSize=12;fontFamily=Helvetica;fillColor=none;strokeColor=none;" parent="dkOQYcRJOfMOdsa485y--2" vertex="1">
                    <mxGeometry x="255" y="280" width="160" height="50" as="geometry"/>
                </mxCell>
                <mxCell id="A34_4Cs7itOyvC4KYHDT-2" value="&lt;font style=&quot;font-size: 14px&quot;&gt;Ngày sinh:&lt;/font&gt;" style="text;spacingTop=-5;whiteSpace=wrap;html=1;align=left;fontSize=12;fontFamily=Helvetica;fillColor=none;strokeColor=none;" parent="dkOQYcRJOfMOdsa485y--2" vertex="1">
                    <mxGeometry x="255" y="310" width="160" height="50" as="geometry"/>
                </mxCell>
                <mxCell id="A34_4Cs7itOyvC4KYHDT-5" value="&lt;font style=&quot;font-size: 14px&quot;&gt;Phòng ban&lt;/font&gt;" style="text;spacingTop=-5;whiteSpace=wrap;html=1;align=left;fontSize=12;fontFamily=Helvetica;fillColor=none;strokeColor=none;" parent="dkOQYcRJOfMOdsa485y--2" vertex="1">
                    <mxGeometry x="255" y="370" width="160" height="50" as="geometry"/>
                </mxCell>
                <mxCell id="A34_4Cs7itOyvC4KYHDT-3" value="&lt;font style=&quot;font-size: 14px&quot;&gt;Ngày vào công ty:&lt;/font&gt;" style="text;spacingTop=-5;whiteSpace=wrap;html=1;align=left;fontSize=12;fontFamily=Helvetica;fillColor=none;strokeColor=none;" parent="dkOQYcRJOfMOdsa485y--2" vertex="1">
                    <mxGeometry x="255" y="340" width="160" height="50" as="geometry"/>
                </mxCell>
                <mxCell id="A34_4Cs7itOyvC4KYHDT-4" value="&lt;font style=&quot;font-size: 14px&quot;&gt;Số ngày nghỉ còn lại:&lt;/font&gt;" style="text;spacingTop=-5;whiteSpace=wrap;html=1;align=left;fontSize=12;fontFamily=Helvetica;fillColor=none;strokeColor=none;" parent="dkOQYcRJOfMOdsa485y--2" vertex="1">
                    <mxGeometry x="255" y="400" width="160" height="50" as="geometry"/>
                </mxCell>
                <mxCell id="A34_4Cs7itOyvC4KYHDT-6" value="&lt;font style=&quot;font-size: 14px&quot;&gt;Số ngày đã làm thêm:&lt;/font&gt;" style="text;spacingTop=-5;whiteSpace=wrap;html=1;align=left;fontSize=12;fontFamily=Helvetica;fillColor=none;strokeColor=none;" parent="dkOQYcRJOfMOdsa485y--2" vertex="1">
                    <mxGeometry x="255" y="430" width="160" height="50" as="geometry"/>
                </mxCell>
            </root>
        </mxGraphModel>
    </diagram>
    <diagram id="Os6Pi8auauJczXEP4Hcy" name="phongban">
        <mxGraphModel dx="1204" dy="431" grid="1" gridSize="10" guides="1" tooltips="1" connect="1" arrows="1" fold="1" page="1" pageScale="1" pageWidth="850" pageHeight="1100" math="0" shadow="0">
            <root>
                <mxCell id="hsdRPx-zxjue8s4KXn1J-0"/>
                <mxCell id="hsdRPx-zxjue8s4KXn1J-1" parent="hsdRPx-zxjue8s4KXn1J-0"/>
                <mxCell id="hsdRPx-zxjue8s4KXn1J-2" value="" style="strokeWidth=1;shadow=0;dashed=0;align=center;html=1;shape=mxgraph.mockup.containers.browserWindow;rSize=0;strokeColor=#666666;strokeColor2=#008cff;strokeColor3=#c4c4c4;mainText=,;recursiveResize=0;" parent="hsdRPx-zxjue8s4KXn1J-1" vertex="1">
                    <mxGeometry y="10" width="850" height="700" as="geometry"/>
                </mxCell>
                <mxCell id="hsdRPx-zxjue8s4KXn1J-3" value="React App" style="strokeWidth=1;shadow=0;dashed=0;align=center;html=1;shape=mxgraph.mockup.containers.anchor;fontSize=17;fontColor=#666666;align=left;" parent="hsdRPx-zxjue8s4KXn1J-2" vertex="1">
                    <mxGeometry x="60" y="12" width="110" height="26" as="geometry"/>
                </mxCell>
                <mxCell id="hsdRPx-zxjue8s4KXn1J-4" value="http://localhost:3000/phongban" style="strokeWidth=1;shadow=0;dashed=0;align=center;html=1;shape=mxgraph.mockup.containers.anchor;rSize=0;fontSize=17;fontColor=#666666;align=left;" parent="hsdRPx-zxjue8s4KXn1J-2" vertex="1">
                    <mxGeometry x="130" y="60" width="250" height="26" as="geometry"/>
                </mxCell>
                <mxCell id="hsdRPx-zxjue8s4KXn1J-5" value="LOGO" style="rounded=1;whiteSpace=wrap;html=1;" parent="hsdRPx-zxjue8s4KXn1J-2" vertex="1">
                    <mxGeometry x="20" y="120" width="130" height="50" as="geometry"/>
                </mxCell>
                <mxCell id="hsdRPx-zxjue8s4KXn1J-6" value="Trang Chủ" style="rounded=1;whiteSpace=wrap;html=1;" parent="hsdRPx-zxjue8s4KXn1J-2" vertex="1">
                    <mxGeometry x="230" y="120" width="120" height="50" as="geometry"/>
                </mxCell>
                <mxCell id="hsdRPx-zxjue8s4KXn1J-7" value="Phòng Ban" style="rounded=1;whiteSpace=wrap;html=1;fillColor=#f5f5f5;fontColor=#333333;strokeColor=#666666;" parent="hsdRPx-zxjue8s4KXn1J-2" vertex="1">
                    <mxGeometry x="470" y="120" width="120" height="50" as="geometry"/>
                </mxCell>
                <mxCell id="hsdRPx-zxjue8s4KXn1J-8" value="Nhân Viên" style="rounded=1;whiteSpace=wrap;html=1;" parent="hsdRPx-zxjue8s4KXn1J-2" vertex="1">
                    <mxGeometry x="350" y="120" width="120" height="50" as="geometry"/>
                </mxCell>
                <mxCell id="hsdRPx-zxjue8s4KXn1J-9" value="Bảng Lương" style="rounded=1;whiteSpace=wrap;html=1;" parent="hsdRPx-zxjue8s4KXn1J-2" vertex="1">
                    <mxGeometry x="590" y="120" width="120" height="50" as="geometry"/>
                </mxCell>
                <mxCell id="hsdRPx-zxjue8s4KXn1J-10" value="" style="line;strokeWidth=2;html=1;" parent="hsdRPx-zxjue8s4KXn1J-2" vertex="1">
                    <mxGeometry x="40" y="480" width="770" height="10" as="geometry"/>
                </mxCell>
                <mxCell id="hsdRPx-zxjue8s4KXn1J-12" value="&lt;font style=&quot;font-size: 15px&quot;&gt;Về chúng tôi&lt;/font&gt;" style="text;spacingTop=-5;whiteSpace=wrap;html=1;align=left;fontSize=12;fontFamily=Helvetica;fillColor=none;strokeColor=none;" parent="hsdRPx-zxjue8s4KXn1J-2" vertex="1">
                    <mxGeometry x="217.5" y="520" width="160" height="20" as="geometry"/>
                </mxCell>
                <mxCell id="hsdRPx-zxjue8s4KXn1J-13" value="&lt;span style=&quot;background-color: rgb(244 , 242 , 255)&quot;&gt;Trang chủ&lt;/span&gt;" style="shape=rectangle;strokeColor=none;fillColor=none;linkText=;fontSize=17;fontColor=#0000ff;fontStyle=4;html=1;align=center;" parent="hsdRPx-zxjue8s4KXn1J-2" vertex="1">
                    <mxGeometry x="5" y="610" width="150" height="30" as="geometry"/>
                </mxCell>
                <mxCell id="hsdRPx-zxjue8s4KXn1J-14" value="&lt;span style=&quot;background-color: rgb(244 , 242 , 255)&quot;&gt;Nhân viên&lt;/span&gt;" style="shape=rectangle;strokeColor=none;fillColor=none;linkText=;fontSize=17;fontColor=#0000ff;fontStyle=4;html=1;align=center;" parent="hsdRPx-zxjue8s4KXn1J-2" vertex="1">
                    <mxGeometry x="5" y="640" width="150" height="30" as="geometry"/>
                </mxCell>
                <mxCell id="hsdRPx-zxjue8s4KXn1J-15" value="&lt;span style=&quot;background-color: rgb(244 , 242 , 255)&quot;&gt;Phòng Ban&lt;/span&gt;" style="shape=rectangle;strokeColor=none;fillColor=none;linkText=;fontSize=17;fontColor=#0000ff;fontStyle=4;html=1;align=center;" parent="hsdRPx-zxjue8s4KXn1J-2" vertex="1">
                    <mxGeometry x="12.5" y="610" width="150" height="30" as="geometry"/>
                </mxCell>
                <mxCell id="hsdRPx-zxjue8s4KXn1J-16" value="&lt;span style=&quot;background-color: rgb(244 , 242 , 255)&quot;&gt;Bảng Lương&lt;/span&gt;" style="shape=rectangle;strokeColor=none;fillColor=none;linkText=;fontSize=17;fontColor=#0000ff;fontStyle=4;html=1;align=center;" parent="hsdRPx-zxjue8s4KXn1J-2" vertex="1">
                    <mxGeometry x="12.5" y="640" width="150" height="30" as="geometry"/>
                </mxCell>
                <mxCell id="hsdRPx-zxjue8s4KXn1J-17" value="" style="dashed=0;outlineConnect=0;html=1;align=center;labelPosition=center;verticalLabelPosition=bottom;verticalAlign=top;shape=mxgraph.webicons.google_plus;fillColor=#F24B46;gradientColor=#AD3832;labelBackgroundColor=#F4F2FF;fontSize=15;fontColor=#0000FF;" parent="hsdRPx-zxjue8s4KXn1J-2" vertex="1">
                    <mxGeometry x="450" y="550" width="50" height="50" as="geometry"/>
                </mxCell>
                <mxCell id="hsdRPx-zxjue8s4KXn1J-18" value="" style="dashed=0;outlineConnect=0;html=1;align=center;labelPosition=center;verticalLabelPosition=bottom;verticalAlign=top;shape=mxgraph.webicons.facebook;fillColor=#6294E4;gradientColor=#1A2665;labelBackgroundColor=#F4F2FF;fontSize=15;fontColor=#0000FF;" parent="hsdRPx-zxjue8s4KXn1J-2" vertex="1">
                    <mxGeometry x="510" y="550" width="50" height="50" as="geometry"/>
                </mxCell>
                <mxCell id="hsdRPx-zxjue8s4KXn1J-19" value="" style="dashed=0;outlineConnect=0;html=1;align=center;labelPosition=center;verticalLabelPosition=bottom;verticalAlign=top;shape=mxgraph.webicons.linkedin;fillColor=#0095DB;gradientColor=#006391;labelBackgroundColor=#F4F2FF;fontSize=15;fontColor=#0000FF;" parent="hsdRPx-zxjue8s4KXn1J-2" vertex="1">
                    <mxGeometry x="570" y="550" width="46" height="50" as="geometry"/>
                </mxCell>
                <mxCell id="hsdRPx-zxjue8s4KXn1J-20" value="" style="dashed=0;outlineConnect=0;html=1;align=center;labelPosition=center;verticalLabelPosition=bottom;verticalAlign=top;shape=mxgraph.webicons.twitter;fillColor=#49EAF7;gradientColor=#137BD0;labelBackgroundColor=#F4F2FF;fontSize=15;fontColor=#0000FF;" parent="hsdRPx-zxjue8s4KXn1J-2" vertex="1">
                    <mxGeometry x="629.9999999999999" y="550" width="50.6" height="50" as="geometry"/>
                </mxCell>
                <mxCell id="hsdRPx-zxjue8s4KXn1J-21" value="" style="dashed=0;outlineConnect=0;html=1;align=center;labelPosition=center;verticalLabelPosition=bottom;verticalAlign=top;shape=mxgraph.weblogos.youtube_2;fillColor=#FF2626;gradientColor=#B5171F;labelBackgroundColor=#F4F2FF;fontSize=15;fontColor=#0000FF;" parent="hsdRPx-zxjue8s4KXn1J-2" vertex="1">
                    <mxGeometry x="695" y="550" width="50" height="50" as="geometry"/>
                </mxCell>
                <mxCell id="hsdRPx-zxjue8s4KXn1J-22" value="" style="dashed=0;outlineConnect=0;html=1;align=center;labelPosition=center;verticalLabelPosition=bottom;verticalAlign=top;shape=mxgraph.weblogos.gmail;labelBackgroundColor=#F4F2FF;fontSize=15;fontColor=#0000FF;" parent="hsdRPx-zxjue8s4KXn1J-2" vertex="1">
                    <mxGeometry x="760" y="550" width="50" height="50" as="geometry"/>
                </mxCell>
                <mxCell id="hsdRPx-zxjue8s4KXn1J-23" value="&lt;font style=&quot;font-size: 14px&quot;&gt;Địa chỉ:&lt;/font&gt;" style="text;spacingTop=-5;whiteSpace=wrap;html=1;align=left;fontSize=12;fontFamily=Helvetica;fillColor=none;strokeColor=none;" parent="hsdRPx-zxjue8s4KXn1J-2" vertex="1">
                    <mxGeometry x="217.5" y="555" width="160" height="20" as="geometry"/>
                </mxCell>
                <mxCell id="hsdRPx-zxjue8s4KXn1J-24" value="&lt;font style=&quot;font-size: 14px&quot;&gt;Liên hệ:&amp;nbsp;&lt;/font&gt;" style="text;spacingTop=-5;whiteSpace=wrap;html=1;align=left;fontSize=12;fontFamily=Helvetica;fillColor=none;strokeColor=none;" parent="hsdRPx-zxjue8s4KXn1J-2" vertex="1">
                    <mxGeometry x="217.5" y="585" width="160" height="20" as="geometry"/>
                </mxCell>
                <mxCell id="hsdRPx-zxjue8s4KXn1J-29" value="&lt;font size=&quot;1&quot;&gt;&lt;b style=&quot;font-size: 16px&quot;&gt;Danh Sách Phòng Ban&lt;/b&gt;&lt;/font&gt;" style="text;spacingTop=-5;whiteSpace=wrap;html=1;align=left;fontSize=12;fontFamily=Helvetica;fillColor=none;strokeColor=none;" parent="hsdRPx-zxjue8s4KXn1J-2" vertex="1">
                    <mxGeometry x="50" y="190" width="180" height="50" as="geometry"/>
                </mxCell>
                <mxCell id="hsdRPx-zxjue8s4KXn1J-38" value="&lt;div&gt;&lt;span&gt;&lt;b&gt;&lt;font style=&quot;font-size: 14px&quot;&gt;Tên Phòng Ban&lt;/font&gt;&lt;/b&gt;&lt;/span&gt;&lt;/div&gt;&lt;br&gt;Số lượng nhân viên:" style="rounded=1;whiteSpace=wrap;html=1;align=center;" parent="hsdRPx-zxjue8s4KXn1J-2" vertex="1">
                    <mxGeometry x="50" y="250" width="160" height="60" as="geometry"/>
                </mxCell>
                <mxCell id="hsdRPx-zxjue8s4KXn1J-39" value="&lt;div&gt;&lt;span&gt;&lt;b&gt;&lt;font style=&quot;font-size: 14px&quot;&gt;Tên Phòng Ban&lt;/font&gt;&lt;/b&gt;&lt;/span&gt;&lt;/div&gt;&lt;br&gt;Số lượng nhân viên:" style="rounded=1;whiteSpace=wrap;html=1;align=center;" parent="hsdRPx-zxjue8s4KXn1J-2" vertex="1">
                    <mxGeometry x="250" y="250" width="160" height="60" as="geometry"/>
                </mxCell>
                <mxCell id="hsdRPx-zxjue8s4KXn1J-40" value="&lt;div&gt;&lt;span&gt;&lt;b&gt;&lt;font style=&quot;font-size: 14px&quot;&gt;Tên Phòng Ban&lt;/font&gt;&lt;/b&gt;&lt;/span&gt;&lt;/div&gt;&lt;br&gt;Số lượng nhân viên:" style="rounded=1;whiteSpace=wrap;html=1;align=center;" parent="hsdRPx-zxjue8s4KXn1J-2" vertex="1">
                    <mxGeometry x="450" y="250" width="160" height="60" as="geometry"/>
                </mxCell>
                <mxCell id="hsdRPx-zxjue8s4KXn1J-41" value="&lt;div&gt;&lt;span&gt;&lt;b&gt;&lt;font style=&quot;font-size: 14px&quot;&gt;Tên Phòng Ban&lt;/font&gt;&lt;/b&gt;&lt;/span&gt;&lt;/div&gt;&lt;br&gt;Số lượng nhân viên:" style="rounded=1;whiteSpace=wrap;html=1;align=center;" parent="hsdRPx-zxjue8s4KXn1J-2" vertex="1">
                    <mxGeometry x="50" y="360" width="160" height="60" as="geometry"/>
                </mxCell>
                <mxCell id="hsdRPx-zxjue8s4KXn1J-42" value="&lt;div&gt;&lt;span&gt;&lt;b&gt;&lt;font style=&quot;font-size: 14px&quot;&gt;Tên Phòng Ban&lt;/font&gt;&lt;/b&gt;&lt;/span&gt;&lt;/div&gt;&lt;br&gt;Số lượng nhân viên:" style="rounded=1;whiteSpace=wrap;html=1;align=center;" parent="hsdRPx-zxjue8s4KXn1J-2" vertex="1">
                    <mxGeometry x="250" y="360" width="160" height="60" as="geometry"/>
                </mxCell>
                <mxCell id="hsdRPx-zxjue8s4KXn1J-43" value="&lt;font style=&quot;font-size: 15px&quot;&gt;Liên kết&lt;/font&gt;" style="text;spacingTop=-5;whiteSpace=wrap;html=1;align=left;fontSize=12;fontFamily=Helvetica;fillColor=none;strokeColor=none;" parent="hsdRPx-zxjue8s4KXn1J-2" vertex="1">
                    <mxGeometry x="57.5" y="520" width="160" height="20" as="geometry"/>
                </mxCell>
                <mxCell id="hsdRPx-zxjue8s4KXn1J-44" value="&lt;span style=&quot;background-color: rgb(244 , 242 , 255)&quot;&gt;Trang chủ&lt;/span&gt;" style="shape=rectangle;strokeColor=none;fillColor=none;linkText=;fontSize=17;fontColor=#0000ff;fontStyle=4;html=1;align=center;" parent="hsdRPx-zxjue8s4KXn1J-2" vertex="1">
                    <mxGeometry x="12.5" y="550" width="150" height="30" as="geometry"/>
                </mxCell>
                <mxCell id="DnndM2CAXqU6uHJfFSlf-1" value="&lt;span style=&quot;background-color: rgb(244 , 242 , 255)&quot;&gt;Nhân viên&lt;/span&gt;" style="shape=rectangle;strokeColor=none;fillColor=none;linkText=;fontSize=17;fontColor=#0000ff;fontStyle=4;html=1;align=center;" parent="hsdRPx-zxjue8s4KXn1J-2" vertex="1">
                    <mxGeometry x="12.5" y="580" width="150" height="30" as="geometry"/>
                </mxCell>
            </root>
        </mxGraphModel>
    </diagram>
    <diagram id="sGO9eNAIX3kyyLh1bD26" name="bangluong">
        <mxGraphModel dx="1204" dy="431" grid="1" gridSize="10" guides="1" tooltips="1" connect="1" arrows="1" fold="1" page="1" pageScale="1" pageWidth="850" pageHeight="1100" math="0" shadow="0">
            <root>
                <mxCell id="UHfBOTvyrfllsF4MsB5h-0"/>
                <mxCell id="UHfBOTvyrfllsF4MsB5h-1" parent="UHfBOTvyrfllsF4MsB5h-0"/>
                <mxCell id="UHfBOTvyrfllsF4MsB5h-2" value="" style="strokeWidth=1;shadow=0;dashed=0;align=center;html=1;shape=mxgraph.mockup.containers.browserWindow;rSize=0;strokeColor=#666666;strokeColor2=#008cff;strokeColor3=#c4c4c4;mainText=,;recursiveResize=0;" parent="UHfBOTvyrfllsF4MsB5h-1" vertex="1">
                    <mxGeometry y="160" width="850" height="800" as="geometry"/>
                </mxCell>
                <mxCell id="UHfBOTvyrfllsF4MsB5h-3" value="React App" style="strokeWidth=1;shadow=0;dashed=0;align=center;html=1;shape=mxgraph.mockup.containers.anchor;fontSize=17;fontColor=#666666;align=left;" parent="UHfBOTvyrfllsF4MsB5h-2" vertex="1">
                    <mxGeometry x="60" y="12" width="110" height="26" as="geometry"/>
                </mxCell>
                <mxCell id="UHfBOTvyrfllsF4MsB5h-4" value="http://localhost:3000/bangluong" style="strokeWidth=1;shadow=0;dashed=0;align=center;html=1;shape=mxgraph.mockup.containers.anchor;rSize=0;fontSize=17;fontColor=#666666;align=left;" parent="UHfBOTvyrfllsF4MsB5h-2" vertex="1">
                    <mxGeometry x="130" y="60" width="250" height="26" as="geometry"/>
                </mxCell>
                <mxCell id="UHfBOTvyrfllsF4MsB5h-5" value="LOGO" style="rounded=1;whiteSpace=wrap;html=1;" parent="UHfBOTvyrfllsF4MsB5h-2" vertex="1">
                    <mxGeometry x="20" y="120" width="130" height="50" as="geometry"/>
                </mxCell>
                <mxCell id="UHfBOTvyrfllsF4MsB5h-6" value="Trang Chủ" style="rounded=1;whiteSpace=wrap;html=1;" parent="UHfBOTvyrfllsF4MsB5h-2" vertex="1">
                    <mxGeometry x="230" y="120" width="120" height="50" as="geometry"/>
                </mxCell>
                <mxCell id="UHfBOTvyrfllsF4MsB5h-7" value="Bảng Lương" style="rounded=1;whiteSpace=wrap;html=1;fillColor=#f5f5f5;fontColor=#333333;strokeColor=#666666;" parent="UHfBOTvyrfllsF4MsB5h-2" vertex="1">
                    <mxGeometry x="590" y="120" width="120" height="50" as="geometry"/>
                </mxCell>
                <mxCell id="UHfBOTvyrfllsF4MsB5h-8" value="Phòng Ban" style="rounded=1;whiteSpace=wrap;html=1;" parent="UHfBOTvyrfllsF4MsB5h-2" vertex="1">
                    <mxGeometry x="470" y="120" width="120" height="50" as="geometry"/>
                </mxCell>
                <mxCell id="UHfBOTvyrfllsF4MsB5h-9" value="Nhân Viên" style="rounded=1;whiteSpace=wrap;html=1;" parent="UHfBOTvyrfllsF4MsB5h-2" vertex="1">
                    <mxGeometry x="350" y="120" width="120" height="50" as="geometry"/>
                </mxCell>
                <mxCell id="UHfBOTvyrfllsF4MsB5h-10" value="" style="line;strokeWidth=2;html=1;" parent="UHfBOTvyrfllsF4MsB5h-2" vertex="1">
                    <mxGeometry x="30" y="610" width="770" height="10" as="geometry"/>
                </mxCell>
                <mxCell id="UHfBOTvyrfllsF4MsB5h-11" value="&lt;font style=&quot;font-size: 15px&quot;&gt;Liên kết&lt;/font&gt;" style="text;spacingTop=-5;whiteSpace=wrap;html=1;align=left;fontSize=12;fontFamily=Helvetica;fillColor=none;strokeColor=none;" parent="UHfBOTvyrfllsF4MsB5h-2" vertex="1">
                    <mxGeometry x="60" y="635" width="160" height="20" as="geometry"/>
                </mxCell>
                <mxCell id="UHfBOTvyrfllsF4MsB5h-12" value="&lt;font style=&quot;font-size: 15px&quot;&gt;Về chúng tôi&lt;/font&gt;" style="text;spacingTop=-5;whiteSpace=wrap;html=1;align=left;fontSize=12;fontFamily=Helvetica;fillColor=none;strokeColor=none;" parent="UHfBOTvyrfllsF4MsB5h-2" vertex="1">
                    <mxGeometry x="210" y="637.5" width="160" height="20" as="geometry"/>
                </mxCell>
                <mxCell id="UHfBOTvyrfllsF4MsB5h-13" value="&lt;span style=&quot;background-color: rgb(244 , 242 , 255)&quot;&gt;Trang chủ&lt;/span&gt;" style="shape=rectangle;strokeColor=none;fillColor=none;linkText=;fontSize=17;fontColor=#0000ff;fontStyle=4;html=1;align=center;" parent="UHfBOTvyrfllsF4MsB5h-2" vertex="1">
                    <mxGeometry x="15" y="665" width="150" height="30" as="geometry"/>
                </mxCell>
                <mxCell id="UHfBOTvyrfllsF4MsB5h-14" value="&lt;span style=&quot;background-color: rgb(244 , 242 , 255)&quot;&gt;Nhân viên&lt;/span&gt;" style="shape=rectangle;strokeColor=none;fillColor=none;linkText=;fontSize=17;fontColor=#0000ff;fontStyle=4;html=1;align=center;" parent="UHfBOTvyrfllsF4MsB5h-2" vertex="1">
                    <mxGeometry x="15" y="695" width="150" height="30" as="geometry"/>
                </mxCell>
                <mxCell id="UHfBOTvyrfllsF4MsB5h-15" value="&lt;span style=&quot;background-color: rgb(244 , 242 , 255)&quot;&gt;Phòng Ban&lt;/span&gt;" style="shape=rectangle;strokeColor=none;fillColor=none;linkText=;fontSize=17;fontColor=#0000ff;fontStyle=4;html=1;align=center;" parent="UHfBOTvyrfllsF4MsB5h-2" vertex="1">
                    <mxGeometry x="15" y="725" width="150" height="30" as="geometry"/>
                </mxCell>
                <mxCell id="UHfBOTvyrfllsF4MsB5h-16" value="&lt;span style=&quot;background-color: rgb(244 , 242 , 255)&quot;&gt;Bảng Lương&lt;/span&gt;" style="shape=rectangle;strokeColor=none;fillColor=none;linkText=;fontSize=17;fontColor=#0000ff;fontStyle=4;html=1;align=center;" parent="UHfBOTvyrfllsF4MsB5h-2" vertex="1">
                    <mxGeometry x="15" y="755" width="150" height="30" as="geometry"/>
                </mxCell>
                <mxCell id="UHfBOTvyrfllsF4MsB5h-17" value="" style="dashed=0;outlineConnect=0;html=1;align=center;labelPosition=center;verticalLabelPosition=bottom;verticalAlign=top;shape=mxgraph.webicons.google_plus;fillColor=#F24B46;gradientColor=#AD3832;labelBackgroundColor=#F4F2FF;fontSize=15;fontColor=#0000FF;" parent="UHfBOTvyrfllsF4MsB5h-2" vertex="1">
                    <mxGeometry x="450" y="665" width="50" height="50" as="geometry"/>
                </mxCell>
                <mxCell id="UHfBOTvyrfllsF4MsB5h-18" value="" style="dashed=0;outlineConnect=0;html=1;align=center;labelPosition=center;verticalLabelPosition=bottom;verticalAlign=top;shape=mxgraph.webicons.facebook;fillColor=#6294E4;gradientColor=#1A2665;labelBackgroundColor=#F4F2FF;fontSize=15;fontColor=#0000FF;" parent="UHfBOTvyrfllsF4MsB5h-2" vertex="1">
                    <mxGeometry x="510" y="665" width="50" height="50" as="geometry"/>
                </mxCell>
                <mxCell id="UHfBOTvyrfllsF4MsB5h-19" value="" style="dashed=0;outlineConnect=0;html=1;align=center;labelPosition=center;verticalLabelPosition=bottom;verticalAlign=top;shape=mxgraph.webicons.linkedin;fillColor=#0095DB;gradientColor=#006391;labelBackgroundColor=#F4F2FF;fontSize=15;fontColor=#0000FF;" parent="UHfBOTvyrfllsF4MsB5h-2" vertex="1">
                    <mxGeometry x="570" y="665" width="46" height="50" as="geometry"/>
                </mxCell>
                <mxCell id="UHfBOTvyrfllsF4MsB5h-20" value="" style="dashed=0;outlineConnect=0;html=1;align=center;labelPosition=center;verticalLabelPosition=bottom;verticalAlign=top;shape=mxgraph.webicons.twitter;fillColor=#49EAF7;gradientColor=#137BD0;labelBackgroundColor=#F4F2FF;fontSize=15;fontColor=#0000FF;" parent="UHfBOTvyrfllsF4MsB5h-2" vertex="1">
                    <mxGeometry x="629.9999999999999" y="665" width="50.6" height="50" as="geometry"/>
                </mxCell>
                <mxCell id="UHfBOTvyrfllsF4MsB5h-21" value="" style="dashed=0;outlineConnect=0;html=1;align=center;labelPosition=center;verticalLabelPosition=bottom;verticalAlign=top;shape=mxgraph.weblogos.youtube_2;fillColor=#FF2626;gradientColor=#B5171F;labelBackgroundColor=#F4F2FF;fontSize=15;fontColor=#0000FF;" parent="UHfBOTvyrfllsF4MsB5h-2" vertex="1">
                    <mxGeometry x="695" y="665" width="50" height="50" as="geometry"/>
                </mxCell>
                <mxCell id="UHfBOTvyrfllsF4MsB5h-22" value="" style="dashed=0;outlineConnect=0;html=1;align=center;labelPosition=center;verticalLabelPosition=bottom;verticalAlign=top;shape=mxgraph.weblogos.gmail;labelBackgroundColor=#F4F2FF;fontSize=15;fontColor=#0000FF;" parent="UHfBOTvyrfllsF4MsB5h-2" vertex="1">
                    <mxGeometry x="760" y="665" width="50" height="50" as="geometry"/>
                </mxCell>
                <mxCell id="UHfBOTvyrfllsF4MsB5h-23" value="&lt;font style=&quot;font-size: 14px&quot;&gt;Địa chỉ:&lt;/font&gt;" style="text;spacingTop=-5;whiteSpace=wrap;html=1;align=left;fontSize=12;fontFamily=Helvetica;fillColor=none;strokeColor=none;" parent="UHfBOTvyrfllsF4MsB5h-2" vertex="1">
                    <mxGeometry x="210" y="672.5" width="160" height="20" as="geometry"/>
                </mxCell>
                <mxCell id="UHfBOTvyrfllsF4MsB5h-24" value="&lt;font style=&quot;font-size: 14px&quot;&gt;Liên hệ:&amp;nbsp;&lt;/font&gt;" style="text;spacingTop=-5;whiteSpace=wrap;html=1;align=left;fontSize=12;fontFamily=Helvetica;fillColor=none;strokeColor=none;" parent="UHfBOTvyrfllsF4MsB5h-2" vertex="1">
                    <mxGeometry x="210" y="702.5" width="160" height="20" as="geometry"/>
                </mxCell>
                <mxCell id="UHfBOTvyrfllsF4MsB5h-26" value="Nhân Viên" style="strokeWidth=1;shadow=0;dashed=0;align=center;html=1;shape=mxgraph.mockup.navigation.anchor;fontSize=17;fontColor=#666666;fontStyle=1;fillColor=#121212;" parent="UHfBOTvyrfllsF4MsB5h-2" vertex="1">
                    <mxGeometry x="50" y="190" width="90" height="30" as="geometry"/>
                </mxCell>
                <mxCell id="UHfBOTvyrfllsF4MsB5h-27" value="/" style="strokeWidth=1;shadow=0;dashed=0;align=center;html=1;shape=mxgraph.mockup.navigation.anchor;fontSize=24;fontColor=#aaaaaa;fontStyle=1;fillColor=#121212;" parent="UHfBOTvyrfllsF4MsB5h-2" vertex="1">
                    <mxGeometry x="140" y="190" width="20" height="30" as="geometry"/>
                </mxCell>
                <mxCell id="UHfBOTvyrfllsF4MsB5h-28" value="Bảng Lương" style="strokeWidth=1;shadow=0;dashed=0;align=center;html=1;shape=mxgraph.mockup.navigation.anchor;fontSize=17;fontColor=#666666;fontStyle=1;fillColor=#121212;" parent="UHfBOTvyrfllsF4MsB5h-2" vertex="1">
                    <mxGeometry x="170" y="190" width="110" height="30" as="geometry"/>
                </mxCell>
                <mxCell id="UHfBOTvyrfllsF4MsB5h-36" value="Sắp xếp theo hệ số lương tăng dần" style="strokeWidth=1;shadow=0;dashed=0;align=center;html=1;shape=mxgraph.mockup.buttons.button;strokeColor=#2D7600;fontColor=#ffffff;mainText=;buttonStyle=round;fontSize=17;fontStyle=1;fillColor=#60a917;whiteSpace=wrap;labelBackgroundColor=none;" parent="UHfBOTvyrfllsF4MsB5h-2" vertex="1">
                    <mxGeometry x="50" y="240" width="230" height="40" as="geometry"/>
                </mxCell>
                <mxCell id="UHfBOTvyrfllsF4MsB5h-37" value="Sắp xếp theo hệ số lương giảm dần" style="strokeWidth=1;shadow=0;dashed=0;align=center;html=1;shape=mxgraph.mockup.buttons.button;strokeColor=#6F0000;fontColor=#ffffff;mainText=;buttonStyle=round;fontSize=17;fontStyle=1;fillColor=#a20025;whiteSpace=wrap;labelBackgroundColor=none;" parent="UHfBOTvyrfllsF4MsB5h-2" vertex="1">
                    <mxGeometry x="300" y="240" width="230" height="40" as="geometry"/>
                </mxCell>
                <mxCell id="mWE4wUGiKCQa4fB-Yo-U-0" value="&lt;p style=&quot;line-height: 1&quot;&gt;&lt;/p&gt;&lt;div style=&quot;text-align: left ; font-size: 15px&quot;&gt;&lt;b&gt;&lt;font style=&quot;font-size: 15px&quot;&gt;Tên Nhân Viên&lt;/font&gt;&lt;/b&gt;&lt;/div&gt;&lt;div style=&quot;text-align: left ; font-size: 15px&quot;&gt;&lt;b&gt;&lt;font style=&quot;font-size: 15px&quot;&gt;&lt;br&gt;&lt;/font&gt;&lt;/b&gt;&lt;/div&gt;&lt;span style=&quot;line-height: 1 ; font-size: 15px&quot;&gt;&lt;div style=&quot;text-align: left&quot;&gt;&lt;font style=&quot;font-size: 15px&quot;&gt;Mã nhân viên&lt;br&gt;&lt;/font&gt;&lt;/div&gt;&lt;div style=&quot;text-align: left&quot;&gt;&lt;span&gt;&lt;font style=&quot;font-size: 15px&quot;&gt;Hệ số lương&lt;/font&gt;&lt;/span&gt;&lt;/div&gt;&lt;div style=&quot;text-align: left&quot;&gt;&lt;span&gt;&lt;font style=&quot;font-size: 15px&quot;&gt;Số ngày làm thêm&lt;/font&gt;&lt;/span&gt;&lt;/div&gt;&lt;div style=&quot;text-align: left&quot;&gt;&lt;font style=&quot;font-size: 15px&quot;&gt;Lương:&amp;nbsp;&lt;/font&gt;&lt;br&gt;&lt;/div&gt;&lt;/span&gt;&lt;div&gt;&lt;/div&gt;&lt;p&gt;&lt;/p&gt;" style="rounded=1;whiteSpace=wrap;html=1;align=center;" parent="UHfBOTvyrfllsF4MsB5h-2" vertex="1">
                    <mxGeometry x="50" y="310" width="170" height="130" as="geometry"/>
                </mxCell>
                <mxCell id="JQAmBvD9XuhGTLFQhoLi-6" value="&lt;p style=&quot;line-height: 1&quot;&gt;&lt;/p&gt;&lt;div style=&quot;text-align: left ; font-size: 15px&quot;&gt;&lt;b&gt;&lt;font style=&quot;font-size: 15px&quot;&gt;Tên Nhân Viên&lt;/font&gt;&lt;/b&gt;&lt;/div&gt;&lt;div style=&quot;text-align: left ; font-size: 15px&quot;&gt;&lt;b&gt;&lt;font style=&quot;font-size: 15px&quot;&gt;&lt;br&gt;&lt;/font&gt;&lt;/b&gt;&lt;/div&gt;&lt;span style=&quot;line-height: 1 ; font-size: 15px&quot;&gt;&lt;div style=&quot;text-align: left&quot;&gt;&lt;font style=&quot;font-size: 15px&quot;&gt;Mã nhân viên&lt;br&gt;&lt;/font&gt;&lt;/div&gt;&lt;div style=&quot;text-align: left&quot;&gt;&lt;span&gt;&lt;font style=&quot;font-size: 15px&quot;&gt;Hệ số lương&lt;/font&gt;&lt;/span&gt;&lt;/div&gt;&lt;div style=&quot;text-align: left&quot;&gt;&lt;span&gt;&lt;font style=&quot;font-size: 15px&quot;&gt;Số ngày làm thêm&lt;/font&gt;&lt;/span&gt;&lt;/div&gt;&lt;div style=&quot;text-align: left&quot;&gt;&lt;font style=&quot;font-size: 15px&quot;&gt;Lương:&amp;nbsp;&lt;/font&gt;&lt;br&gt;&lt;/div&gt;&lt;/span&gt;&lt;div&gt;&lt;/div&gt;&lt;p&gt;&lt;/p&gt;" style="rounded=1;whiteSpace=wrap;html=1;align=center;" parent="UHfBOTvyrfllsF4MsB5h-2" vertex="1">
                    <mxGeometry x="270" y="310" width="170" height="130" as="geometry"/>
                </mxCell>
                <mxCell id="JQAmBvD9XuhGTLFQhoLi-7" value="&lt;p style=&quot;line-height: 1&quot;&gt;&lt;/p&gt;&lt;div style=&quot;text-align: left ; font-size: 15px&quot;&gt;&lt;b&gt;&lt;font style=&quot;font-size: 15px&quot;&gt;Tên Nhân Viên&lt;/font&gt;&lt;/b&gt;&lt;/div&gt;&lt;div style=&quot;text-align: left ; font-size: 15px&quot;&gt;&lt;b&gt;&lt;font style=&quot;font-size: 15px&quot;&gt;&lt;br&gt;&lt;/font&gt;&lt;/b&gt;&lt;/div&gt;&lt;span style=&quot;line-height: 1 ; font-size: 15px&quot;&gt;&lt;div style=&quot;text-align: left&quot;&gt;&lt;font style=&quot;font-size: 15px&quot;&gt;Mã nhân viên&lt;br&gt;&lt;/font&gt;&lt;/div&gt;&lt;div style=&quot;text-align: left&quot;&gt;&lt;span&gt;&lt;font style=&quot;font-size: 15px&quot;&gt;Hệ số lương&lt;/font&gt;&lt;/span&gt;&lt;/div&gt;&lt;div style=&quot;text-align: left&quot;&gt;&lt;span&gt;&lt;font style=&quot;font-size: 15px&quot;&gt;Số ngày làm thêm&lt;/font&gt;&lt;/span&gt;&lt;/div&gt;&lt;div style=&quot;text-align: left&quot;&gt;&lt;font style=&quot;font-size: 15px&quot;&gt;Lương:&amp;nbsp;&lt;/font&gt;&lt;br&gt;&lt;/div&gt;&lt;/span&gt;&lt;div&gt;&lt;/div&gt;&lt;p&gt;&lt;/p&gt;" style="rounded=1;whiteSpace=wrap;html=1;align=center;" parent="UHfBOTvyrfllsF4MsB5h-2" vertex="1">
                    <mxGeometry x="490" y="310" width="170" height="130" as="geometry"/>
                </mxCell>
                <mxCell id="JQAmBvD9XuhGTLFQhoLi-9" value="&lt;p style=&quot;line-height: 1&quot;&gt;&lt;/p&gt;&lt;div style=&quot;text-align: left ; font-size: 15px&quot;&gt;&lt;b&gt;&lt;font style=&quot;font-size: 15px&quot;&gt;Tên Nhân Viên&lt;/font&gt;&lt;/b&gt;&lt;/div&gt;&lt;div style=&quot;text-align: left ; font-size: 15px&quot;&gt;&lt;b&gt;&lt;font style=&quot;font-size: 15px&quot;&gt;&lt;br&gt;&lt;/font&gt;&lt;/b&gt;&lt;/div&gt;&lt;span style=&quot;line-height: 1 ; font-size: 15px&quot;&gt;&lt;div style=&quot;text-align: left&quot;&gt;&lt;font style=&quot;font-size: 15px&quot;&gt;Mã nhân viên&lt;br&gt;&lt;/font&gt;&lt;/div&gt;&lt;div style=&quot;text-align: left&quot;&gt;&lt;span&gt;&lt;font style=&quot;font-size: 15px&quot;&gt;Hệ số lương&lt;/font&gt;&lt;/span&gt;&lt;/div&gt;&lt;div style=&quot;text-align: left&quot;&gt;&lt;span&gt;&lt;font style=&quot;font-size: 15px&quot;&gt;Số ngày làm thêm&lt;/font&gt;&lt;/span&gt;&lt;/div&gt;&lt;div style=&quot;text-align: left&quot;&gt;&lt;font style=&quot;font-size: 15px&quot;&gt;Lương:&amp;nbsp;&lt;/font&gt;&lt;br&gt;&lt;/div&gt;&lt;/span&gt;&lt;div&gt;&lt;/div&gt;&lt;p&gt;&lt;/p&gt;" style="rounded=1;whiteSpace=wrap;html=1;align=center;" parent="UHfBOTvyrfllsF4MsB5h-2" vertex="1">
                    <mxGeometry x="55" y="460" width="170" height="130" as="geometry"/>
                </mxCell>
                <mxCell id="JQAmBvD9XuhGTLFQhoLi-11" value="&lt;p style=&quot;line-height: 1&quot;&gt;&lt;/p&gt;&lt;div style=&quot;text-align: left ; font-size: 15px&quot;&gt;&lt;b&gt;&lt;font style=&quot;font-size: 15px&quot;&gt;Tên Nhân Viên&lt;/font&gt;&lt;/b&gt;&lt;/div&gt;&lt;div style=&quot;text-align: left ; font-size: 15px&quot;&gt;&lt;b&gt;&lt;font style=&quot;font-size: 15px&quot;&gt;&lt;br&gt;&lt;/font&gt;&lt;/b&gt;&lt;/div&gt;&lt;span style=&quot;line-height: 1 ; font-size: 15px&quot;&gt;&lt;div style=&quot;text-align: left&quot;&gt;&lt;font style=&quot;font-size: 15px&quot;&gt;Mã nhân viên&lt;br&gt;&lt;/font&gt;&lt;/div&gt;&lt;div style=&quot;text-align: left&quot;&gt;&lt;span&gt;&lt;font style=&quot;font-size: 15px&quot;&gt;Hệ số lương&lt;/font&gt;&lt;/span&gt;&lt;/div&gt;&lt;div style=&quot;text-align: left&quot;&gt;&lt;span&gt;&lt;font style=&quot;font-size: 15px&quot;&gt;Số ngày làm thêm&lt;/font&gt;&lt;/span&gt;&lt;/div&gt;&lt;div style=&quot;text-align: left&quot;&gt;&lt;font style=&quot;font-size: 15px&quot;&gt;Lương:&amp;nbsp;&lt;/font&gt;&lt;br&gt;&lt;/div&gt;&lt;/span&gt;&lt;div&gt;&lt;/div&gt;&lt;p&gt;&lt;/p&gt;" style="rounded=1;whiteSpace=wrap;html=1;align=center;" parent="UHfBOTvyrfllsF4MsB5h-2" vertex="1">
                    <mxGeometry x="270" y="460" width="170" height="130" as="geometry"/>
                </mxCell>
                <mxCell id="JQAmBvD9XuhGTLFQhoLi-10" value="&lt;p style=&quot;line-height: 1&quot;&gt;&lt;/p&gt;&lt;div style=&quot;text-align: left ; font-size: 15px&quot;&gt;&lt;b&gt;&lt;font style=&quot;font-size: 15px&quot;&gt;Tên Nhân Viên&lt;/font&gt;&lt;/b&gt;&lt;/div&gt;&lt;div style=&quot;text-align: left ; font-size: 15px&quot;&gt;&lt;b&gt;&lt;font style=&quot;font-size: 15px&quot;&gt;&lt;br&gt;&lt;/font&gt;&lt;/b&gt;&lt;/div&gt;&lt;span style=&quot;line-height: 1 ; font-size: 15px&quot;&gt;&lt;div style=&quot;text-align: left&quot;&gt;&lt;font style=&quot;font-size: 15px&quot;&gt;Mã nhân viên&lt;br&gt;&lt;/font&gt;&lt;/div&gt;&lt;div style=&quot;text-align: left&quot;&gt;&lt;span&gt;&lt;font style=&quot;font-size: 15px&quot;&gt;Hệ số lương&lt;/font&gt;&lt;/span&gt;&lt;/div&gt;&lt;div style=&quot;text-align: left&quot;&gt;&lt;span&gt;&lt;font style=&quot;font-size: 15px&quot;&gt;Số ngày làm thêm&lt;/font&gt;&lt;/span&gt;&lt;/div&gt;&lt;div style=&quot;text-align: left&quot;&gt;&lt;font style=&quot;font-size: 15px&quot;&gt;Lương:&amp;nbsp;&lt;/font&gt;&lt;br&gt;&lt;/div&gt;&lt;/span&gt;&lt;div&gt;&lt;/div&gt;&lt;p&gt;&lt;/p&gt;" style="rounded=1;whiteSpace=wrap;html=1;align=center;" parent="UHfBOTvyrfllsF4MsB5h-2" vertex="1">
                    <mxGeometry x="490" y="460" width="170" height="130" as="geometry"/>
                </mxCell>
            </root>
        </mxGraphModel>
    </diagram>
</mxfile>